<svg width="257" height="42" viewBox="0 0 257 42" fill="none" xmlns="http://www.w3.org/2000/svg">
<path d="M0 5C0 2.23858 2.23858 0 5 0H252C254.761 0 257 2.23858 257 5V37C257 39.7614 254.761 42 252 42H0V5Z" fill="white"/>
<path d="M23 12.6667C18.4166 12.6667 14.6666 16.4167 14.6666 21C14.6666 25.5833 18.4166 29.3333 23 29.3333C27.5833 29.3333 31.3333 25.5833 31.3333 21C31.3333 16.4167 27.5833 12.6667 23 12.6667ZM21.3333 25.1667L17.1666 21L18.3416 19.825L21.3333 22.8083L27.6583 16.4833L28.8333 17.6667L21.3333 25.1667Z" fill="#60B84B"/>
<path d="M48.828 15.624H50.508V22.668H53.268V24H48.828V15.624ZM54.3358 24V17.352H56.0158V24H54.3358ZM55.1878 16.56C54.5878 16.56 54.1558 16.128 54.1558 15.576C54.1558 15.024 54.5878 14.592 55.1878 14.592C55.7758 14.592 56.2198 15.024 56.2198 15.576C56.2198 16.128 55.7758 16.56 55.1878 16.56ZM62.3317 24V20.328C62.3317 19.26 61.7437 18.684 60.8557 18.684C59.9437 18.684 59.3557 19.26 59.3557 20.328V24H57.6757V17.352H59.3557V18.18C59.7877 17.616 60.5077 17.256 61.3597 17.256C62.9077 17.256 64.0117 18.264 64.0117 20.1V24H62.3317ZM65.6093 24V15.12H67.2893V20.172L69.5213 17.352H71.7053L68.7773 20.688L71.7293 24H69.5453L67.2893 21.168V24H65.6093ZM75.0444 20.676C75.0444 18.588 76.4124 17.244 78.3324 17.244C79.9884 17.244 81.1044 18.108 81.4644 19.596H79.6524C79.4604 19.032 79.0164 18.672 78.3204 18.672C77.3844 18.672 76.7604 19.38 76.7604 20.676C76.7604 21.972 77.3844 22.668 78.3204 22.668C79.0164 22.668 79.4484 22.356 79.6524 21.756H81.4644C81.1044 23.172 79.9884 24.108 78.3324 24.108C76.4124 24.108 75.0444 22.764 75.0444 20.676ZM89.1152 20.676C89.1152 22.764 87.5792 24.108 85.6472 24.108C83.7272 24.108 82.2752 22.764 82.2752 20.676C82.2752 18.576 83.7752 17.244 85.6952 17.244C87.6152 17.244 89.1152 18.576 89.1152 20.676ZM83.9792 20.676C83.9792 21.996 84.7472 22.644 85.6472 22.644C86.5352 22.644 87.3872 21.996 87.3872 20.676C87.3872 19.344 86.5592 18.708 85.6712 18.708C84.7832 18.708 83.9792 19.344 83.9792 20.676ZM92.0275 18.312C92.4235 17.748 93.1915 17.244 94.2235 17.244C95.9275 17.244 97.2595 18.576 97.2595 20.652C97.2595 22.728 95.9275 24.108 94.2235 24.108C93.1795 24.108 92.4355 23.592 92.0275 23.052V27.168H90.3475V17.352H92.0275V18.312ZM95.5435 20.652C95.5435 19.392 94.6915 18.72 93.7795 18.72C92.8795 18.72 92.0275 19.416 92.0275 20.676C92.0275 21.936 92.8795 22.632 93.7795 22.632C94.6915 22.632 95.5435 21.912 95.5435 20.652ZM98.4803 24V17.352H100.16V24H98.4803ZM99.3323 16.56C98.7323 16.56 98.3003 16.128 98.3003 15.576C98.3003 15.024 98.7323 14.592 99.3323 14.592C99.9203 14.592 100.364 15.024 100.364 15.576C100.364 16.128 99.9203 16.56 99.3323 16.56ZM104.676 18.624C103.872 18.624 103.236 19.14 103.104 20.052H106.26C106.236 19.176 105.54 18.624 104.676 18.624ZM107.832 21.912C107.472 23.136 106.368 24.108 104.724 24.108C102.792 24.108 101.388 22.764 101.388 20.676C101.388 18.576 102.756 17.244 104.724 17.244C106.644 17.244 108 18.552 108 20.532C108 20.748 107.988 20.964 107.952 21.18H103.092C103.176 22.164 103.848 22.716 104.688 22.716C105.408 22.716 105.804 22.356 106.02 21.912H107.832ZM108.794 20.652C108.794 18.576 110.138 17.244 111.842 17.244C112.718 17.244 113.558 17.652 114.014 18.276V15.12H115.718V24H114.014V23.016C113.618 23.628 112.874 24.108 111.83 24.108C110.138 24.108 108.794 22.728 108.794 20.652ZM114.026 20.676C114.026 19.416 113.186 18.72 112.262 18.72C111.362 18.72 110.51 19.392 110.51 20.652C110.51 21.912 111.362 22.632 112.262 22.632C113.186 22.632 114.026 21.936 114.026 20.676ZM120.483 21.936V18.732H119.691V17.352H120.483V15.708H122.175V17.352H123.663V18.732H122.175V21.948C122.175 22.392 122.355 22.584 122.883 22.584H123.663V24H122.607C121.335 24 120.483 23.46 120.483 21.936ZM131.291 20.676C131.291 22.764 129.755 24.108 127.823 24.108C125.903 24.108 124.451 22.764 124.451 20.676C124.451 18.576 125.951 17.244 127.871 17.244C129.791 17.244 131.291 18.576 131.291 20.676ZM126.155 20.676C126.155 21.996 126.923 22.644 127.823 22.644C128.711 22.644 129.563 21.996 129.563 20.676C129.563 19.344 128.735 18.708 127.847 18.708C126.959 18.708 126.155 19.344 126.155 20.676ZM134.975 19.8C134.975 17.292 136.811 15.516 139.223 15.516C141.083 15.516 142.595 16.512 143.159 18.228H141.227C140.831 17.424 140.111 17.028 139.211 17.028C137.747 17.028 136.703 18.096 136.703 19.8C136.703 21.492 137.747 22.572 139.211 22.572C140.111 22.572 140.831 22.176 141.227 21.36H143.159C142.595 23.088 141.083 24.072 139.223 24.072C136.811 24.072 134.975 22.308 134.975 19.8ZM144.594 24V15.12H146.274V24H144.594ZM147.933 24V17.352H149.613V24H147.933ZM148.785 16.56C148.185 16.56 147.753 16.128 147.753 15.576C147.753 15.024 148.185 14.592 148.785 14.592C149.373 14.592 149.817 15.024 149.817 15.576C149.817 16.128 149.373 16.56 148.785 16.56ZM152.953 18.312C153.349 17.748 154.117 17.244 155.149 17.244C156.853 17.244 158.185 18.576 158.185 20.652C158.185 22.728 156.853 24.108 155.149 24.108C154.105 24.108 153.361 23.592 152.953 23.052V27.168H151.273V17.352H152.953V18.312ZM156.469 20.652C156.469 19.392 155.617 18.72 154.705 18.72C153.805 18.72 152.953 19.416 152.953 20.676C152.953 21.936 153.805 22.632 154.705 22.632C155.617 22.632 156.469 21.912 156.469 20.652ZM161.086 18.324C161.494 17.712 162.274 17.244 163.282 17.244C164.986 17.244 166.318 18.576 166.318 20.652C166.318 22.728 164.986 24.108 163.282 24.108C162.238 24.108 161.494 23.628 161.086 23.052V24H159.406V15.12H161.086V18.324ZM164.602 20.652C164.602 19.392 163.75 18.72 162.838 18.72C161.938 18.72 161.086 19.416 161.086 20.676C161.086 21.936 161.938 22.632 162.838 22.632C163.75 22.632 164.602 21.912 164.602 20.652ZM173.959 20.676C173.959 22.764 172.423 24.108 170.491 24.108C168.571 24.108 167.119 22.764 167.119 20.676C167.119 18.576 168.619 17.244 170.539 17.244C172.459 17.244 173.959 18.576 173.959 20.676ZM168.823 20.676C168.823 21.996 169.591 22.644 170.491 22.644C171.379 22.644 172.231 21.996 172.231 20.676C172.231 19.344 171.403 18.708 170.515 18.708C169.627 18.708 168.823 19.344 168.823 20.676ZM174.759 20.652C174.759 18.576 176.103 17.244 177.795 17.244C178.863 17.244 179.595 17.748 179.991 18.3V17.352H181.683V24H179.991V23.028C179.595 23.604 178.839 24.108 177.783 24.108C176.103 24.108 174.759 22.728 174.759 20.652ZM179.991 20.676C179.991 19.416 179.151 18.72 178.227 18.72C177.327 18.72 176.475 19.392 176.475 20.652C176.475 21.912 177.327 22.632 178.227 22.632C179.151 22.632 179.991 21.936 179.991 20.676ZM185.004 20.688V24H183.324V17.352H185.004V18.384C185.424 17.7 186.12 17.256 187.044 17.256V19.02H186.6C185.604 19.02 185.004 19.404 185.004 20.688ZM187.744 20.652C187.744 18.576 189.088 17.244 190.792 17.244C191.668 17.244 192.508 17.652 192.964 18.276V15.12H194.668V24H192.964V23.016C192.568 23.628 191.824 24.108 190.78 24.108C189.088 24.108 187.744 22.728 187.744 20.652ZM192.976 20.676C192.976 19.416 192.136 18.72 191.212 18.72C190.312 18.72 189.46 19.392 189.46 20.652C189.46 21.912 190.312 22.632 191.212 22.632C192.136 22.632 192.976 21.936 192.976 20.676Z" fill="#474444"/>
<path d="M242.25 7.75L235.75 14.25M235.75 7.75L242.25 14.25" stroke="#474444" stroke-width="1.5" stroke-linecap="round" stroke-linejoin="round"/>
<path d="M196 41H1" stroke="#60B84B" stroke-width="2" stroke-linecap="square"/>
</svg>
